
<svg xmlns="http://www.w3.org/2000/svg" version="1.1" xmlns:xlink="http://www.w3.org/1999/xlink" preserveAspectRatio="none" x="0px" y="0px" width="100px" height="100px" viewBox="0 0 100 100">
<defs>
<g id="Layer0_0_FILL">
<path fill="#F4F4F4" stroke="none" d="
M 90 28.9
Q 90 25.6 87.65 23.25 85.3 20.9 82 20.9 78.7 20.9 76.35 23.25
L 39.8 59.75 23.65 43.65
Q 21.3 41.3 18 41.3 14.7 41.3 12.35 43.65 10 46 10 49.3 10 52.6 12.35 54.95
L 34.1 76.75
Q 36.45 79.1 39.8 79.1 43.1 79.1 45.45 76.75
L 87.65 34.55
Q 90 32.2 90 28.9 Z"/>
</g>
</defs>

<g transform="matrix( 1, 0, 0, 1, 0,0) ">
<use xlink:href="#Layer0_0_FILL"/>
</g>
</svg>
