
<svg xmlns="http://www.w3.org/2000/svg" version="1.1" xmlns:xlink="http://www.w3.org/1999/xlink" preserveAspectRatio="none" x="0px" y="0px" width="120px" height="40px" viewBox="0 0 120 40">
<defs>
<g id="Layer0_0_FILL">
<path fill="#003972" stroke="none" d="
M 32.25 31.8
Q 30.85 33.2 30.85 35.2 30.85 37.2 32.25 38.6 33.65 40 35.65 40 37.6 40 39 38.6 40.45 37.2 40.45 35.2 40.45 33.2 39 31.8 37.6 30.4 35.65 30.4 33.65 30.4 32.25 31.8
M 32.05 35.2
Q 32.05 33.7 33.1 32.7 34.15 31.65 35.65 31.65 37.1 31.65 38.15 32.7 39.2 33.7 39.2 35.2 39.2 36.7 38.15 37.75 37.1 38.8 35.65 38.8 34.15 38.8 33.1 37.75 32.05 36.7 32.05 35.2
M 11.2 34.6
L 11.2 31.75 14.5 31.75 14.5 30.55 10 30.55 10 39.9 11.2 39.9 11.2 35.8 14.5 35.8 14.5 34.6 11.2 34.6
M 58.9 30.55
L 56.25 30.55 56.25 39.9 57.45 39.9 57.45 36.9 58.55 36.9 60.4 39.9 61.9 39.9 59.8 36.7
Q 60.15 36.6 60.8 35.95 61.75 35.05 61.75 33.7 61.75 32.4 60.8 31.45 60 30.7 58.9 30.55
M 57.45 35.7
L 57.45 31.75 58.55 31.75
Q 59.35 31.75 59.95 32.3 60.5 32.9 60.5 33.7 60.5 34.55 59.95 35.1 59.35 35.7 58.55 35.7
L 57.45 35.7
M 110 30.55
L 108.9 30.55 105.85 35.8 102.8 30.55 101.7 30.55 101.7 39.9 102.95 39.9 102.95 33.15 105.85 38.2 108.8 33.15 108.8 39.9 110 39.9 110 30.55
M 85.65 30.55
L 84.45 30.55 84.45 36.8
Q 84.45 37.6 83.85 38.2 83.3 38.75 82.45 38.75 81.65 38.75 81.1 38.2 80.5 37.6 80.5 36.8
L 80.5 30.55 79.3 30.55 79.3 36.8
Q 79.3 38.1 80.2 39.05 81.15 40 82.45 40 83.8 40 84.7 39.05 85.5 38.25 85.65 37.15
L 85.65 30.55 Z"/>
</g>

<g id="Layer0_1_FILL">
<path fill="#0054A6" stroke="none" d="
M 14.4 4.7
Q 14.4 3.95 13.9 3.5 13.4 2.95 12.6 2.95
L 7.15 2.95
Q 0 2.95 0 10.15
L 0 19.25
Q 0.25 26 7.15 26
L 12.6 26
Q 13.4 26 13.9 25.5 14.4 25 14.4 24.25 14.4 23.45 13.9 23 13.4 22.4 12.6 22.4
L 7.15 22.4
Q 3.75 22.4 3.55 19.05
L 3.55 10.15
Q 3.55 6.5 7.15 6.5
L 12.6 6.5
Q 13.4 6.5 13.9 6 14.4 5.5 14.4 4.7
M 28.85 2.95
Q 28.1 2.95 27.6 3.5 27.1 3.95 27.1 4.7
L 27.1 18.8
Q 27.1 22.4 23.5 22.4 19.85 22.4 19.85 18.8
L 19.85 4.7
Q 19.85 4 19.35 3.5 18.8 2.95 18 2.95 17.25 2.95 16.75 3.5 16.25 3.95 16.25 4.7
L 16.25 18.8
Q 16.25 26 23.5 26 30.7 26 30.7 18.8
L 30.7 4.7
Q 30.7 4 30.2 3.5 29.65 2.95 28.85 2.95
M 46.95 4.7
Q 46.95 4 46.45 3.5 45.9 2.95 45.15 2.95 44.3 2.95 43.9 3.5 43.3 3.95 43.3 4.7
L 43.3 12.65 36.05 12.65 36.05 4.7
Q 36.05 3.95 35.55 3.5 35.05 2.95 34.25 2.95 33.5 2.95 33 3.5 32.5 3.95 32.5 4.7
L 32.5 24.25
Q 32.5 25 33 25.5 33.5 26 34.25 26 35.05 26 35.55 25.5 36.05 25 36.05 24.25
L 36.05 16.25 43.3 16.25 43.3 24.25
Q 43.3 25 43.9 25.5 44.35 26 45.15 26 45.9 26 46.45 25.5 46.95 24.9 46.95 24.25
L 46.95 4.7
M 63.2 24.25
L 63.2 10.15
Q 63.2 2.95 56 2.95 48.75 2.95 48.75 10.15
L 48.75 24.25
Q 48.75 25 49.25 25.5 49.75 26 50.5 26 51.3 26 51.8 25.5 52.3 25 52.3 24.25
L 52.3 16.25 59.55 16.25 59.55 24.25
Q 59.55 25 60.15 25.5 60.6 26 61.4 26 62.15 26 62.7 25.5 63.2 24.9 63.2 24.25
M 56 6.5
Q 59.55 6.5 59.55 10.15
L 59.55 12.65 52.3 12.65 52.3 10.15
Q 52.3 6.5 56 6.5
M 65.55 15.75
Q 66.05 16.25 66.8 16.25
L 75.9 16.25
Q 76.65 16.25 77.15 15.75 77.65 15.25 77.65 14.45 77.65 13.7 77.15 13.2 76.6 12.65 75.9 12.65
L 66.8 12.65
Q 66.1 12.65 65.55 13.2 65.05 13.7 65.05 14.45 65.05 15.25 65.55 15.75
M 92.8 1.8
Q 92.8 1.1 92.3 0.6 91.7 0 91 0 90.25 0 89.65 0.6 89.15 1.1 89.15 1.8
L 89.15 14.45
Q 89.15 15.15 89.65 15.75 90.2 16.25 91 16.25 91.75 16.25 92.3 15.75 92.8 15.15 92.8 14.45
L 92.8 1.8
M 102.55 14.75
L 102.55 14.15
Q 102.4 9.6 99.15 6.35 96.65 3.9 93.65 3.25
L 93.65 6.95
Q 95.25 7.55 96.55 8.9 98.85 11.2 98.9 14.25
L 98.9 14.65
Q 98.85 17.8 96.55 20.05 94.35 22.4 91 22.4 87.7 22.4 85.4 20.05 83.05 17.85 83.05 14.45 83.05 11.1 85.4 8.9
L 85.3 8.9
Q 86.7 7.6 88.3 7
L 88.3 3.25
Q 85.3 4 82.8 6.25
L 82.8 6.35
Q 79.4 9.75 79.4 14.45 79.4 19.25 82.8 22.65 86.25 26 91 26 95.75 26 99.15 22.65 102.4 19.3 102.55 14.75
M 111.55 6.5
Q 115.15 6.5 115.15 10.15
L 115.15 24.25
Q 115.15 25 115.75 25.5 116.2 26 117 26 117.75 26 118.3 25.5 118.8 24.9 118.8 24.25
L 118.8 10.15
Q 118.8 2.95 111.55 2.95 104.3 2.95 104.3 10.15
L 104.3 24.25
Q 104.3 25 104.9 25.5 105.35 26 106.15 26 106.9 26 107.4 25.5 107.9 25 107.9 24.25
L 107.9 10.15
Q 107.9 6.5 111.55 6.5 Z"/>
</g>
</defs>

<g transform="matrix( 1, 0, 0, 1, 0,0) ">
<use xlink:href="#Layer0_0_FILL"/>
</g>

<g transform="matrix( 1, 0, 0, 1, 0,0) ">
<use xlink:href="#Layer0_1_FILL"/>
</g>
</svg>
