
<svg xmlns="http://www.w3.org/2000/svg" version="1.1" xmlns:xlink="http://www.w3.org/1999/xlink" preserveAspectRatio="none" x="0px" y="0px" width="160px" height="26px" viewBox="0 0 160 26">
<defs>
<g id="Layer0_0_FILL">
<path fill="#A6A6A6" stroke="none" d="
M 34.5 6
Q 35.05 5.45 35.05 4.7 35.05 3.95 34.5 3.45 34 2.9 33.25 2.9
L 27.8 2.9
Q 20.6 2.9 20.6 10.15
L 20.6 19.1
Q 20.6 19.15 20.6 19.2 20.8 26 27.8 26
L 33.25 26
Q 34 26 34.5 25.5 35.05 24.95 35.05 24.2 35.05 23.45 34.5 22.95 34 22.4 33.25 22.4
L 27.8 22.4
Q 24.35 22.4 24.2 19.05
L 24.2 10.15
Q 24.2 6.5 27.8 6.5
L 33.25 6.5
Q 34 6.5 34.5 6
M 51.3 4.7
Q 51.3 3.95 50.75 3.45 50.25 2.9 49.5 2.9 48.75 2.9 48.2 3.45 47.7 3.95 47.7 4.7
L 47.7 18.8
Q 47.7 22.4 44.05 22.4 40.45 22.4 40.45 18.8
L 40.45 4.7
Q 40.45 3.95 39.95 3.45 39.4 2.9 38.65 2.9 37.9 2.9 37.4 3.45 36.85 3.95 36.85 4.7
L 36.85 18.8
Q 36.85 26 44.05 26 51.3 26 51.3 18.8
L 51.3 4.7
M 64.45 3.45
Q 63.95 3.95 63.95 4.7
L 63.95 12.65 56.7 12.65 56.7 4.7
Q 56.7 3.95 56.2 3.45 55.65 2.9 54.9 2.9 54.15 2.9 53.65 3.45 53.1 3.95 53.1 4.7
L 53.1 24.2
Q 53.1 24.95 53.65 25.5 54.15 26 54.9 26 55.65 26 56.2 25.5 56.7 24.95 56.7 24.2
L 56.7 16.25 63.95 16.25 63.95 24.2
Q 63.95 24.95 64.45 25.5 65 26 65.75 26 66.5 26 67 25.5 67.55 24.95 67.55 24.2
L 67.55 4.7
Q 67.55 3.95 67 3.45 66.5 2.9 65.75 2.9 65 2.9 64.45 3.45
M 83.8 24.2
L 83.8 10.15
Q 83.8 2.9 76.55 2.9 69.35 2.9 69.35 10.15
L 69.35 24.2
Q 69.35 24.95 69.9 25.5 70.4 26 71.15 26 71.9 26 72.45 25.5 72.95 24.95 72.95 24.2
L 72.95 16.25 80.2 16.25 80.2 24.2
Q 80.2 24.95 80.7 25.5 81.25 26 82 26 82.75 26 83.25 25.5 83.8 24.95 83.8 24.2
M 76.55 6.5
Q 80.2 6.5 80.2 10.15
L 80.2 12.65 72.95 12.65 72.95 10.15
Q 72.95 6.5 76.55 6.5
M 86.15 15.75
Q 86.65 16.25 87.4 16.25
L 96.45 16.25
Q 97.2 16.25 97.7 15.75 98.25 15.2 98.25 14.45 98.25 13.7 97.7 13.2 97.2 12.65 96.45 12.65
L 87.4 12.65
Q 86.65 12.65 86.15 13.2 86.1 13.25 86.05 13.25
L 86.05 15.65
Q 86.1 15.7 86.15 15.75
M 113.4 1.8
Q 113.4 1.05 112.85 0.55 112.3 0 111.6 0 110.85 0 110.3 0.55 109.75 1.05 109.75 1.8
L 109.75 14.45
Q 109.75 15.2 110.3 15.75 110.85 16.25 111.6 16.25 112.3 16.25 112.85 15.75 113.4 15.2 113.4 14.45
L 113.4 1.8
M 123.15 14.45
Q 123.15 14.3 123.15 14.15 123 9.55 119.75 6.3 117.35 3.9 114.3 3.2
L 114.3 6.95
Q 115.9 7.55 117.2 8.85 119.45 11.1 119.5 14.25 119.5 14.35 119.55 14.45 119.5 14.55 119.5 14.65 119.45 17.8 117.2 20.05 114.85 22.4 111.6 22.4 108.35 22.4 106 20.05 103.65 17.75 103.65 14.45 103.65 11.15 106 8.85
L 105.95 8.85
Q 107.25 7.55 108.85 7
L 108.85 3.25
Q 105.8 3.95 103.45 6.25
L 103.4 6.3
Q 100.05 9.7 100.05 14.45 100.05 19.25 103.45 22.6 106.85 26 111.6 26 116.35 26 119.75 22.6 123 19.35 123.15 14.75 123.15 14.6 123.15 14.45
M 139.4 10.15
Q 139.4 2.9 132.15 2.9 124.95 2.9 124.95 10.15
L 124.95 14.2
Q 124.95 14.25 124.95 14.35 124.95 14.4 124.95 14.45
L 124.95 24.2
Q 124.95 24.95 125.5 25.5 126 26 126.75 26 127.5 26 128.05 25.5 128.55 24.95 128.55 24.2
L 128.55 14.45
Q 128.55 14.4 128.55 14.35 128.55 14.25 128.55 14.2
L 128.55 10.15
Q 128.55 6.5 132.15 6.5 135.8 6.5 135.8 10.15
L 135.8 24.2
Q 135.8 24.95 136.3 25.5 136.85 26 137.6 26 138.35 26 138.85 25.5 139.4 24.95 139.4 24.2
L 139.4 10.15 Z"/>
</g>
</defs>

<g transform="matrix( 1, 0, 0, 1, 0,0) ">
<use xlink:href="#Layer0_0_FILL"/>
</g>
</svg>
