
<svg xmlns="http://www.w3.org/2000/svg" version="1.1" xmlns:xlink="http://www.w3.org/1999/xlink" preserveAspectRatio="none" x="0px" y="0px" width="160px" height="26px" viewBox="0 0 160 26">
<defs>
<g id="Layer0_0_FILL">
<path fill="#0054A6" stroke="none" d="
M 174.1 -92.25
Q 174.65 -92.8 174.65 -93.55 174.65 -94.3 174.1 -94.8 173.6 -95.35 172.85 -95.35
L 163.8 -95.35
Q 163.05 -95.35 162.55 -94.8 162.5 -94.75 162.45 -94.75
L 162.45 -92.35
Q 162.5 -92.3 162.55 -92.25 163.05 -91.75 163.8 -91.75
L 172.85 -91.75
Q 173.6 -91.75 174.1 -92.25
M 204.95 -93.55
Q 204.95 -93.6 204.95 -93.65 204.95 -93.75 204.95 -93.8
L 204.95 -97.85
Q 204.95 -101.5 208.55 -101.5 212.2 -101.5 212.2 -97.85
L 212.2 -83.8
Q 212.2 -83.05 212.7 -82.5 213.25 -82 214 -82 214.75 -82 215.25 -82.5 215.8 -83.05 215.8 -83.8
L 215.8 -97.85
Q 215.8 -105.1 208.55 -105.1 201.35 -105.1 201.35 -97.85
L 201.35 -93.8
Q 201.35 -93.75 201.35 -93.65 201.35 -93.6 201.35 -93.55
L 201.35 -83.8
Q 201.35 -83.05 201.9 -82.5 202.4 -82 203.15 -82 203.9 -82 204.45 -82.5 204.95 -83.05 204.95 -83.8
L 204.95 -93.55
M 189.25 -107.45
Q 188.7 -108 188 -108 187.25 -108 186.7 -107.45 186.15 -106.95 186.15 -106.2
L 186.15 -93.55
Q 186.15 -92.8 186.7 -92.25 187.25 -91.75 188 -91.75 188.7 -91.75 189.25 -92.25 189.8 -92.8 189.8 -93.55
L 189.8 -106.2
Q 189.8 -106.95 189.25 -107.45
M 179.85 -101.75
L 179.8 -101.7
Q 176.45 -98.3 176.45 -93.55 176.45 -88.75 179.85 -85.4 183.25 -82 188 -82 192.75 -82 196.15 -85.4 199.4 -88.65 199.55 -93.25 199.55 -93.4 199.55 -93.55 199.55 -93.7 199.55 -93.85 199.4 -98.45 196.15 -101.7 193.75 -104.1 190.7 -104.8
L 190.7 -101.05
Q 192.3 -100.45 193.6 -99.15 195.85 -96.9 195.9 -93.75 195.9 -93.65 195.95 -93.55 195.9 -93.45 195.9 -93.35 195.85 -90.2 193.6 -87.95 191.25 -85.6 188 -85.6 184.75 -85.6 182.4 -87.95 180.05 -90.25 180.05 -93.55 180.05 -96.85 182.4 -99.15
L 182.35 -99.15
Q 183.65 -100.45 185.25 -101
L 185.25 -104.75
Q 182.2 -104.05 179.85 -101.75
M 145.75 -83.8
Q 145.75 -83.05 146.3 -82.5 146.8 -82 147.55 -82 148.3 -82 148.85 -82.5 149.35 -83.05 149.35 -83.8
L 149.35 -91.75 156.6 -91.75 156.6 -83.8
Q 156.6 -83.05 157.1 -82.5 157.65 -82 158.4 -82 159.15 -82 159.65 -82.5 160.2 -83.05 160.2 -83.8
L 160.2 -97.85
Q 160.2 -105.1 152.95 -105.1 145.75 -105.1 145.75 -97.85
L 145.75 -83.8
M 156.6 -97.85
L 156.6 -95.35 149.35 -95.35 149.35 -97.85
Q 149.35 -101.5 152.95 -101.5 156.6 -101.5 156.6 -97.85
M 130.05 -104.55
Q 129.5 -104.05 129.5 -103.3
L 129.5 -83.8
Q 129.5 -83.05 130.05 -82.5 130.55 -82 131.3 -82 132.05 -82 132.6 -82.5 133.1 -83.05 133.1 -83.8
L 133.1 -91.75 140.35 -91.75 140.35 -83.8
Q 140.35 -83.05 140.85 -82.5 141.4 -82 142.15 -82 142.9 -82 143.4 -82.5 143.95 -83.05 143.95 -83.8
L 143.95 -103.3
Q 143.95 -104.05 143.4 -104.55 142.9 -105.1 142.15 -105.1 141.4 -105.1 140.85 -104.55 140.35 -104.05 140.35 -103.3
L 140.35 -95.35 133.1 -95.35 133.1 -103.3
Q 133.1 -104.05 132.6 -104.55 132.05 -105.1 131.3 -105.1 130.55 -105.1 130.05 -104.55
M 113.8 -104.55
Q 113.25 -104.05 113.25 -103.3
L 113.25 -89.2
Q 113.25 -82 120.45 -82 127.7 -82 127.7 -89.2
L 127.7 -103.3
Q 127.7 -104.05 127.15 -104.55 126.65 -105.1 125.9 -105.1 125.15 -105.1 124.6 -104.55 124.1 -104.05 124.1 -103.3
L 124.1 -89.2
Q 124.1 -85.6 120.45 -85.6 116.85 -85.6 116.85 -89.2
L 116.85 -103.3
Q 116.85 -104.05 116.35 -104.55 115.8 -105.1 115.05 -105.1 114.3 -105.1 113.8 -104.55
M 104.2 -101.5
L 109.65 -101.5
Q 110.4 -101.5 110.9 -102 111.45 -102.55 111.45 -103.3 111.45 -104.05 110.9 -104.55 110.4 -105.1 109.65 -105.1
L 104.2 -105.1
Q 97 -105.1 97 -97.85
L 97 -88.9
Q 97 -88.85 97 -88.8 97.2 -82 104.2 -82
L 109.65 -82
Q 110.4 -82 110.9 -82.5 111.45 -83.05 111.45 -83.8 111.45 -84.55 110.9 -85.05 110.4 -85.6 109.65 -85.6
L 104.2 -85.6
Q 100.75 -85.6 100.6 -88.95
L 100.6 -97.85
Q 100.6 -101.5 104.2 -101.5 Z"/>
</g>
</defs>

<g transform="matrix( 1, 0, 0, 1, -76.4,108) ">
<use xlink:href="#Layer0_0_FILL"/>
</g>
</svg>
