
<svg xmlns="http://www.w3.org/2000/svg" version="1.1" xmlns:xlink="http://www.w3.org/1999/xlink" preserveAspectRatio="none" x="0px" y="0px" width="160px" height="26px" viewBox="0 0 160 26">
<defs>
<g id="Layer0_0_FILL">
<path fill="#0054A6" stroke="none" d="
M 8.65 2.9
L 3.2 2.9
Q -4 2.9 -4 10.15
L -4 19.1
Q -4 19.15 -4 19.2 -3.8 26 3.2 26
L 8.65 26
Q 9.4 26 9.9 25.5 10.45 24.95 10.45 24.2 10.45 23.45 9.9 22.95 9.4 22.4 8.65 22.4
L 3.2 22.4
Q -0.25 22.4 -0.4 19.05
L -0.4 10.15
Q -0.4 6.5 3.2 6.5
L 8.65 6.5
Q 9.4 6.5 9.9 6 10.45 5.45 10.45 4.7 10.45 3.95 9.9 3.45 9.4 2.9 8.65 2.9
M 26.7 4.7
Q 26.7 3.95 26.15 3.45 25.65 2.9 24.9 2.9 24.15 2.9 23.6 3.45 23.1 3.95 23.1 4.7
L 23.1 18.8
Q 23.1 22.4 19.45 22.4 15.85 22.4 15.85 18.8
L 15.85 4.7
Q 15.85 3.95 15.35 3.45 14.8 2.9 14.05 2.9 13.3 2.9 12.8 3.45 12.25 3.95 12.25 4.7
L 12.25 18.8
Q 12.25 26 19.45 26 26.7 26 26.7 18.8
L 26.7 4.7
M 42.4 3.45
Q 41.9 2.9 41.15 2.9 40.4 2.9 39.85 3.45 39.35 3.95 39.35 4.7
L 39.35 12.65 32.1 12.65 32.1 4.7
Q 32.1 3.95 31.6 3.45 31.05 2.9 30.3 2.9 29.55 2.9 29.05 3.45 28.5 3.95 28.5 4.7
L 28.5 24.2
Q 28.5 24.95 29.05 25.5 29.55 26 30.3 26 31.05 26 31.6 25.5 32.1 24.95 32.1 24.2
L 32.1 16.25 39.35 16.25 39.35 24.2
Q 39.35 24.95 39.85 25.5 40.4 26 41.15 26 41.9 26 42.4 25.5 42.95 24.95 42.95 24.2
L 42.95 4.7
Q 42.95 3.95 42.4 3.45
M 59.2 10.15
Q 59.2 2.9 51.95 2.9 44.75 2.9 44.75 10.15
L 44.75 24.2
Q 44.75 24.95 45.3 25.5 45.8 26 46.55 26 47.3 26 47.85 25.5 48.35 24.95 48.35 24.2
L 48.35 16.25 55.6 16.25 55.6 24.2
Q 55.6 24.95 56.1 25.5 56.65 26 57.4 26 58.15 26 58.7 25.5 59.2 24.95 59.2 24.2
L 59.2 10.15
M 51.95 6.5
Q 55.6 6.5 55.6 10.15
L 55.6 12.65 48.35 12.65 48.35 10.15
Q 48.35 6.5 51.95 6.5
M 62.8 12.65
Q 62.05 12.65 61.55 13.2 61 13.7 61 14.45 61 15.2 61.55 15.75 62.05 16.25 62.8 16.25
L 71.85 16.25
Q 72.6 16.25 73.1 15.75 73.65 15.2 73.65 14.45 73.65 13.7 73.1 13.2 72.6 12.65 71.85 12.65
L 62.8 12.65
M 89.9 9.75
Q 89.7 4.4 85.4 3.25
L 85.4 7.4
Q 86.2 8.25 86.3 9.85
L 86.3 18.8
Q 86.3 22.4 82.65 22.4 79.05 22.4 79.05 18.8
L 79.05 9.8
Q 79.15 8.2 79.95 7.4
L 79.95 3.25
Q 75.65 4.45 75.45 9.75
L 75.45 18.8
Q 75.45 26 82.65 26 89.9 26 89.9 18.8
L 89.9 9.75
M 83.95 0.55
Q 83.4 0 82.65 0 81.9 0 81.4 0.55 80.85 1.05 80.85 1.8
L 80.85 14.45
Q 80.85 15.2 81.4 15.75 81.9 16.25 82.65 16.25 83.4 16.25 83.95 15.75 84.45 15.2 84.45 14.45
L 84.45 1.8
Q 84.45 1.05 83.95 0.55
M 106.15 24.2
L 106.15 10.15
Q 106.15 2.9 98.9 2.9 91.7 2.9 91.7 10.15
L 91.7 24.2
Q 91.7 24.95 92.25 25.5 92.75 26 93.5 26 94.25 26 94.8 25.5 95.3 24.95 95.3 24.2
L 95.3 10.15
Q 95.3 6.5 98.9 6.5 102.55 6.5 102.55 10.15
L 102.55 24.2
Q 102.55 24.95 103.05 25.5 103.6 26 104.35 26 105.1 26 105.6 25.5 106.15 24.95 106.15 24.2 Z"/>
</g>
</defs>

<g transform="matrix( 1, 0, 0, 1, 28.95,0) ">
<use xlink:href="#Layer0_0_FILL"/>
</g>
</svg>
