
<svg xmlns="http://www.w3.org/2000/svg" version="1.1" xmlns:xlink="http://www.w3.org/1999/xlink" preserveAspectRatio="none" x="0px" y="0px" width="160px" height="26px" viewBox="0 0 160 26">
<defs>
<g id="Layer0_0_FILL">
<path fill="#0054A6" stroke="none" d="
M 13.95 3.45
Q 13.4 2.9 12.65 2.9
L 7.2 2.9
Q 0 2.9 0 10.15
L 0 19.1
Q 0 19.15 0 19.2 0.25 26 7.2 26
L 12.65 26
Q 13.4 26 13.95 25.5 14.45 24.95 14.45 24.2 14.45 23.45 13.95 22.95 13.4 22.4 12.65 22.4
L 7.2 22.4
Q 3.75 22.4 3.6 19.05
L 3.6 10.15
Q 3.6 6.5 7.2 6.5
L 12.65 6.5
Q 13.4 6.5 13.95 6 14.45 5.45 14.45 4.7 14.45 3.95 13.95 3.45
M 30.2 3.45
Q 29.65 2.9 28.9 2.9 28.15 2.9 27.65 3.45 27.1 3.95 27.1 4.7
L 27.1 18.8
Q 27.1 22.4 23.5 22.4 19.85 22.4 19.85 18.8
L 19.85 4.7
Q 19.85 3.95 19.35 3.45 18.8 2.9 18.05 2.9 17.3 2.9 16.8 3.45 16.25 3.95 16.25 4.7
L 16.25 18.8
Q 16.25 26 23.5 26 30.7 26 30.7 18.8
L 30.7 4.7
Q 30.7 3.95 30.2 3.45
M 46.95 4.7
Q 46.95 3.95 46.45 3.45 45.9 2.9 45.15 2.9 44.4 2.9 43.9 3.45 43.35 3.95 43.35 4.7
L 43.35 12.65 36.1 12.65 36.1 4.7
Q 36.1 3.95 35.6 3.45 35.05 2.9 34.3 2.9 33.55 2.9 33.05 3.45 32.5 3.95 32.5 4.7
L 32.5 24.2
Q 32.5 24.95 33.05 25.5 33.55 26 34.3 26 35.05 26 35.6 25.5 36.1 24.95 36.1 24.2
L 36.1 16.25 43.35 16.25 43.35 24.2
Q 43.35 24.95 43.9 25.5 44.4 26 45.15 26 45.9 26 46.45 25.5 46.95 24.95 46.95 24.2
L 46.95 4.7
M 63.2 24.2
L 63.2 10.15
Q 63.2 2.9 56 2.9 48.75 2.9 48.75 10.15
L 48.75 24.2
Q 48.75 24.95 49.3 25.5 49.8 26 50.55 26 51.3 26 51.85 25.5 52.35 24.95 52.35 24.2
L 52.35 16.25 59.6 16.25 59.6 24.2
Q 59.6 24.95 60.15 25.5 60.65 26 61.4 26 62.15 26 62.7 25.5 63.2 24.95 63.2 24.2
M 56 6.5
Q 59.6 6.5 59.6 10.15
L 59.6 12.65 52.35 12.65 52.35 10.15
Q 52.35 6.5 56 6.5
M 92.8 1.8
Q 92.8 1.05 92.3 0.55 91.75 0 91 0 90.25 0 89.7 0.55 89.2 1.05 89.2 1.8
L 89.2 14.45
Q 89.2 15.2 89.7 15.75 90.25 16.25 91 16.25 91.75 16.25 92.3 15.75 92.8 15.2 92.8 14.45
L 92.8 1.8
M 102.55 14.75
Q 102.55 14.6 102.55 14.45 102.55 14.3 102.55 14.15 102.45 9.55 99.15 6.3 96.75 3.9 93.7 3.2
L 93.7 6.95
Q 95.3 7.55 96.6 8.85 98.85 11.1 98.95 14.25 98.95 14.35 98.95 14.45 98.95 14.55 98.95 14.65 98.85 17.8 96.6 20.05 94.3 22.4 91 22.4 87.75 22.4 85.4 20.05 83.05 17.75 83.05 14.45 83.05 11.15 85.4 8.85
L 85.35 8.85
Q 86.7 7.55 88.3 7
L 88.3 3.25
Q 85.25 3.95 82.85 6.25
L 82.8 6.3
Q 79.45 9.7 79.45 14.45 79.45 19.25 82.85 22.6 86.25 26 91 26 95.75 26 99.15 22.6 102.45 19.35 102.55 14.75
M 111.6 6.5
Q 115.2 6.5 115.2 10.15
L 115.2 24.2
Q 115.2 24.95 115.75 25.5 116.25 26 117 26 117.75 26 118.3 25.5 118.8 24.95 118.8 24.2
L 118.8 10.15
Q 118.8 2.9 111.6 2.9 104.35 2.9 104.35 10.15
L 104.35 14.2
Q 104.35 14.25 104.35 14.35 104.35 14.4 104.35 14.45
L 104.35 24.2
Q 104.35 24.95 104.9 25.5 105.4 26 106.15 26 106.9 26 107.45 25.5 107.95 24.95 107.95 24.2
L 107.95 14.45
Q 107.95 14.4 107.95 14.35 107.95 14.25 107.95 14.2
L 107.95 10.15
Q 107.95 6.5 111.6 6.5 Z"/>
</g>

<g id="Layer0_1_FILL">
<path fill="#0054A6" stroke="none" d="
M 66.85 12.65
Q 66.1 12.65 65.6 13.2 65.05 13.7 65.05 14.45 65.05 15.2 65.6 15.75 66.1 16.25 66.85 16.25
L 75.9 16.25
Q 76.65 16.25 77.2 15.75 77.7 15.2 77.7 14.45 77.7 13.7 77.2 13.2 76.65 12.65 75.9 12.65
L 66.85 12.65 Z"/>
</g>
</defs>

<g transform="matrix( 1, 0, 0, 1, 0,0) ">
<use xlink:href="#Layer0_0_FILL"/>
</g>

<g transform="matrix( 1, 0, 0, 1, 0,0) ">
<use xlink:href="#Layer0_1_FILL"/>
</g>
</svg>
